<?xml version="1.0" encoding="utf-8"?>
<!-- Generator: Adobe Illustrator 25.4.8, SVG Export Plug-In . SVG Version: 6.00 Build 0)  -->
<svg version="1.1" id="Layer_1" xmlns="http://www.w3.org/2000/svg" xmlns:xlink="http://www.w3.org/1999/xlink" x="0px" y="0px"
	 viewBox="0 0 1500 500" style="enable-background:new 0 0 1500 500;" xml:space="preserve">
<style type="text/css">
	.st0{fill:none;}
	.st1{fill:#99F9FF;}
	.st2{fill:#F7F7F7;}
	.st3{opacity:0.66;}
	.st4{clip-path:url(#SVGID_00000147220247028201165860000012063115942378710412_);}
	.st5{fill:#CEF4ED;}
	.st6{fill:#FFFFFF;}
	.st7{fill:#E7FFFC;}
	.st8{opacity:0.64;fill:#CEF4ED;}
	.st9{opacity:0.64;fill:#FFFFFF;}
	.st10{opacity:0.64;fill:#E6FFFC;}
	.st11{clip-path:url(#SVGID_00000025426951144680396600000005685627543195645884_);}
	.st12{fill:#E6FFFC;}
</style>
<rect class="st0" width="1500" height="500"/>
<rect class="st1" width="1500" height="500"/>
<rect class="st2" width="1500" height="500"/>
<g class="st3">
	<defs>
		<rect id="SVGID_1_" x="666" y="92" class="st3" width="168.2" height="48"/>
	</defs>
	<clipPath id="SVGID_00000001625120554519416240000006068497250376104855_">
		<use xlink:href="#SVGID_1_"  style="overflow:visible;"/>
	</clipPath>
	<g style="clip-path:url(#SVGID_00000001625120554519416240000006068497250376104855_);">
		<path class="st5" d="M785.8,104.1h-83.9v12.1h83.9V104.1z"/>
		<path class="st5" d="M786.2,116.2h-96v12.1h96V116.2z"/>
		<path class="st5" d="M749.9,127.9H666V140h83.9V127.9z"/>
		<path class="st5" d="M726.1,92H714v12.1h12.1h12.1V92H726.1z"/>
		<path class="st6" d="M785.8,104.1h-35.9v12.1h35.9V104.1z"/>
		<path class="st6" d="M810,116.2h-35.9v12.1H810V116.2z"/>
		<path class="st6" d="M834.2,127.9h-35.9V140h35.9V127.9z"/>
		<path class="st6" d="M762,92h-35.9v12.1H762V92z"/>
		<path class="st7" d="M762,104.1h-35.9v12.1H762V104.1z"/>
		<path class="st7" d="M774.1,116.2h-35.9v12.1h35.9V116.2z"/>
		<path class="st7" d="M738.2,92H714v12.1h24.2V92z"/>
		<path class="st7" d="M797.9,127.9H762V140h35.9V127.9z"/>
	</g>
</g>
<g>
	<path class="st8" d="M1449,87.5h-113.2v8.1H1449V87.5z"/>
	<path class="st8" d="M1433,79.3h-89.1v8.1h89.1V79.3z"/>
	<path class="st8" d="M1376.2,63.3h-8.1v7.9h8.1h8.1v-7.9H1376.2z"/>
	<path class="st9" d="M1432.7,79.3h-24.2v8.1h24.2V79.3z"/>
	<path class="st9" d="M1449,87.5h-24.2v8.1h24.2V87.5z"/>
	<path class="st10" d="M1408.5,79.3h-24.2v8.1h24.2V79.3z"/>
	<path class="st10" d="M1400.4,71.2h-24.2v8.1h24.2V71.2z"/>
	<path class="st10" d="M1384.4,63.3h-16.3v8.1h16.3V63.3z"/>
	<path class="st10" d="M1424.6,87.5h-24.2v8.1h24.2V87.5z"/>
	<path class="st8" d="M1408.5,71.2h-113.2v8.1h113.2V71.2z"/>
	<path class="st8" d="M1392.5,63.3h-89.1v8.1h89.1V63.3z"/>
	<path class="st8" d="M1376,55.1h-56.5v8.1h56.5V55.1z"/>
	<path class="st8" d="M1327.6,87.5H1263v8.1h64.6V87.5z"/>
	<path class="st8" d="M1335.8,47h-8.1v8.1h8.1h8.1V47H1335.8z"/>
	<path class="st9" d="M1376.2,55.1h-24.2v8.1h24.2V55.1z"/>
	<path class="st9" d="M1327.6,87.5h-24.2v8.1h24.2V87.5z"/>
	<path class="st9" d="M1392.3,63.3h-24.2v8.1h24.2V63.3z"/>
	<path class="st9" d="M1408.5,71.2h-24.2v8.1h24.2V71.2z"/>
	<path class="st9" d="M1359.9,47h-24.2v8.1h24.2V47z"/>
	<path class="st10" d="M1368.1,63.3h-24.2v8.1h24.2V63.3z"/>
	<path class="st10" d="M1359.9,55.1h-24.2v8.1h24.2V55.1z"/>
	<path class="st10" d="M1303.5,87.5h-24.2v8.1h24.2V87.5z"/>
	<path class="st10" d="M1311.6,71.2h-8.1v8.1h8.1V71.2z"/>
	<path class="st10" d="M1343.9,47h-16.3v8.1h16.3V47z"/>
	<path class="st10" d="M1384.1,71.2h-24.2v8.1h24.2V71.2z"/>
	<path class="st8" d="M1319.7,79.3h-40.5v8.1h40.5V79.3z"/>
	<path class="st9" d="M1319.5,79.3h-24.2v8.1h24.2V79.3z"/>
	<path class="st9" d="M1335.8,95.6h-24.2v8.1h24.2V95.6z"/>
	<path class="st10" d="M1311.3,95.6h-24.2v8.1h24.2V95.6z"/>
	<path class="st10" d="M1295.3,79.3h-8.1v8.1h8.1V79.3z"/>
</g>
<g class="st3">
	<defs>
		<rect id="SVGID_00000057105879689945795330000012745145003398044838_" x="51" y="55" class="st3" width="249" height="71.1"/>
	</defs>
	<clipPath id="SVGID_00000140002429525927820750000014924876564736688513_">
		<use xlink:href="#SVGID_00000057105879689945795330000012745145003398044838_"  style="overflow:visible;"/>
	</clipPath>
	<g style="clip-path:url(#SVGID_00000140002429525927820750000014924876564736688513_);">
		<path class="st5" d="M300,108.2H51v17.9h249V108.2z"/>
		<path class="st5" d="M264.7,90.8H68.9v17.9h195.8V90.8z"/>
		<path class="st5" d="M228.4,72.9H104.2v17.9h124.2V72.9z"/>
		<path class="st5" d="M140,55h-17.9v17.9H140h17.9V55H140z"/>
		<path class="st6" d="M228.4,72.9h-53.2v17.9h53.2V72.9z"/>
		<path class="st6" d="M264.2,90.8H211v17.9h53.2V90.8z"/>
		<path class="st6" d="M300,108.2h-53.2v17.9H300V108.2z"/>
		<path class="st6" d="M193.1,55H140v17.9h53.2V55z"/>
		<path class="st12" d="M211,90.8h-53.2v17.9H211V90.8z"/>
		<path class="st12" d="M193.1,72.9H140v17.9h53.2V72.9z"/>
		<path class="st12" d="M157.9,55h-35.8v17.9h35.8V55z"/>
		<path class="st12" d="M246.3,108.2h-53.2v17.9h53.2V108.2z"/>
	</g>
</g>
</svg>
