<svg width="169" height="48" viewBox="0 0 169 48" fill="none" xmlns="http://www.w3.org/2000/svg">
<path d="M119.811 12.0945H35.9055V24.189H119.811V12.0945Z" fill="#CEF4ED"/>
<path d="M120.189 24.1891H24.189V36.2836H120.189V24.1891Z" fill="#CEF4ED"/>
<path d="M83.9055 35.9055H0V48H83.9055V35.9055Z" fill="#CEF4ED"/>
<path d="M60.0942 0H47.9998V12.0945H60.0942H72.1887V0H60.0942Z" fill="#CEF4ED"/>
<path d="M119.811 12.0945H83.9053V24.189H119.811V12.0945Z" fill="white"/>
<path d="M144 24.1891H108.094V36.2836H144V24.1891Z" fill="white"/>
<path d="M168.189 35.9055H132.283V48H168.189V35.9055Z" fill="white"/>
<path d="M96 0H60.0945V12.0945H96V0Z" fill="white"/>
<path d="M96 12.0945H60.0945V24.189H96V12.0945Z" fill="#E7FFFC"/>
<path d="M108.094 24.1891H72.189V36.2836H108.094V24.1891Z" fill="#E7FFFC"/>
<path d="M72.1887 0H47.9998V12.0945H72.1887V0Z" fill="#E7FFFC"/>
<path d="M131.906 35.9055H96V48H131.906V35.9055Z" fill="#E7FFFC"/>
</svg>
