<svg width="249" height="72" viewBox="0 0 249 72" fill="none" xmlns="http://www.w3.org/2000/svg">
<path d="M249 53.1573H0V71.063H249V53.1573Z" fill="#CEF4ED"/>
<path d="M213.748 35.8114H17.9053V53.717H213.748V35.8114Z" fill="#CEF4ED"/>
<path d="M177.378 17.9058H53.1575V35.8114H177.378V17.9058Z" fill="#CEF4ED"/>
<path d="M88.9684 0H71.0627V17.9056H88.9684H106.874V0H88.9684Z" fill="#CEF4ED"/>
<path d="M177.377 17.9058H124.22V35.8114H177.377V17.9058Z" fill="white"/>
<path d="M213.189 35.8114H160.031V53.717H213.189V35.8114Z" fill="white"/>
<path d="M249 53.1573H195.843V71.063H249V53.1573Z" fill="white"/>
<path d="M142.126 0H88.9688V17.9056H142.126V0Z" fill="white"/>
<path d="M160.031 35.8114H106.874V53.717H160.031V35.8114Z" fill="#E6FFFC"/>
<path d="M142.126 17.9058H88.9688V35.8114H142.126V17.9058Z" fill="#E6FFFC"/>
<path d="M106.874 0H71.0627V17.9056H106.874V0Z" fill="#E6FFFC"/>
<path d="M195.283 53.1573H142.126V71.063H195.283V53.1573Z" fill="#E6FFFC"/>
</svg>
