<svg width="186" height="57" viewBox="0 0 186 57" fill="none" xmlns="http://www.w3.org/2000/svg">
<path d="M186 40.4569H72.7715V48.5992H186V40.4569Z" fill="#CEF4ED"/>
<path d="M169.97 32.3146H80.9136V40.4568H169.97V32.3146Z" fill="#CEF4ED"/>
<path d="M113.228 16.2845H105.086V24.1724H113.228H121.37V16.2845H113.228Z" fill="#CEF4ED"/>
<path d="M169.715 32.3146H145.543V40.4568H169.715V32.3146Z" fill="white"/>
<path d="M186 40.4569H161.827V48.5992H186V40.4569Z" fill="white"/>
<path d="M145.543 32.3146H121.371V40.4568H145.543V32.3146Z" fill="#E6FFFC"/>
<path d="M137.401 24.1724H113.229V32.3146H137.401V24.1724Z" fill="#E6FFFC"/>
<path d="M121.37 16.2845H105.086V24.4268H121.37V16.2845Z" fill="#E6FFFC"/>
<path d="M161.573 40.4569H137.401V48.5992H161.573V40.4569Z" fill="#E6FFFC"/>
<path d="M145.543 24.1724H32.3145V32.3146H145.543V24.1724Z" fill="#CEF4ED"/>
<path d="M129.513 16.2845H40.457V24.4268H129.513V16.2845Z" fill="#CEF4ED"/>
<path d="M112.974 8.14221H56.4868V16.2845H112.974V8.14221Z" fill="#CEF4ED"/>
<path d="M64.6293 40.4569H0V48.5992H64.6293V40.4569Z" fill="#CEF4ED"/>
<path d="M72.7717 0H64.6294V8.14227H72.7717H80.9139V0H72.7717Z" fill="#CEF4ED"/>
<path d="M113.229 8.14221H89.0562V16.2845H113.229V8.14221Z" fill="white"/>
<path d="M64.6294 40.4569H40.457V48.5992H64.6294V40.4569Z" fill="white"/>
<path d="M129.259 16.2845H105.086V24.4268H129.259V16.2845Z" fill="white"/>
<path d="M145.543 24.1724H121.371V32.3146H145.543V24.1724Z" fill="white"/>
<path d="M96.9438 0H72.7715V8.14227H96.9438V0Z" fill="white"/>
<path d="M105.086 16.2845H80.9138V24.4268H105.086V16.2845Z" fill="#E6FFFC"/>
<path d="M96.9438 8.14221H72.7715V16.2845H96.9438V8.14221Z" fill="#E6FFFC"/>
<path d="M40.457 40.4569H16.2847V48.5992H40.457V40.4569Z" fill="#E6FFFC"/>
<path d="M48.5993 24.1724H40.457V32.3146H48.5993V24.1724Z" fill="#E6FFFC"/>
<path d="M80.9139 0H64.6294V8.14227H80.9139V0Z" fill="#E6FFFC"/>
<path d="M121.116 24.1724H96.9438V32.3146H121.116V24.1724Z" fill="#E6FFFC"/>
<path d="M56.7416 32.3146H16.2847V40.4568H56.7416V32.3146Z" fill="#CEF4ED"/>
<path d="M56.4868 32.3146H32.3145V40.4568H56.4868V32.3146Z" fill="white"/>
<path d="M72.7715 48.5991H48.5991V56.7414H72.7715V48.5991Z" fill="white"/>
<path d="M48.3447 48.5991H24.1724V56.7414H48.3447V48.5991Z" fill="#E6FFFC"/>
<path d="M32.3146 32.3146H24.1724V40.4568H32.3146V32.3146Z" fill="#E6FFFC"/>
</svg>
